<svg width="28" height="28" viewBox="0 0 28 28" fill="none" xmlns="http://www.w3.org/2000/svg">
<path fill-rule="evenodd" clip-rule="evenodd" d="M7.55464 2.33755L7.52146 2.33535C5.98514 2.26387 3.81713 4.11114 3.01605 5.44724C2.13709 6.64783 2.12019 8.24221 2.88776 10.0864L3.00877 10.3649C5.03135 15.346 12.6209 22.9261 17.5826 25.0014C19.481 25.8895 21.173 25.9057 22.506 24.9458C23.6781 24.2758 25.6002 22.0463 25.5446 20.4629C25.4919 19.8114 25.1891 19.2796 24.7187 18.7955L24.6039 18.6815L24.2843 18.386C23.1272 17.3513 21.1239 15.8781 20.5042 15.7479C19.7766 15.5962 19.2833 15.732 18.5052 16.1611L18.2154 16.3259C17.662 16.645 17.4641 16.6995 17.202 16.6039C14.4336 15.4674 12.4815 13.5055 11.3375 10.6913C11.2631 10.4828 11.2999 10.3007 11.5405 9.85915L11.6673 9.63402C12.1918 8.71799 12.3676 8.20014 12.2024 7.40275L12.1732 7.29941C11.9022 6.51049 10.2414 4.28463 9.31924 3.31561L9.17068 3.16531C8.69008 2.69332 8.16161 2.3898 7.55464 2.33755ZM7.42568 4.0413L7.48894 4.05345C7.59966 4.0847 7.73023 4.16137 7.87726 4.28771L7.98434 4.38563L8.18646 4.59841C8.97053 5.46411 10.4895 7.50564 10.5398 7.74976C10.5872 7.97892 10.5347 8.17046 10.2859 8.62183L10.1558 8.85195C9.60791 9.81129 9.43832 10.4299 9.75316 11.3046C11.0822 14.5759 13.3695 16.8747 16.5915 18.1966C17.4225 18.5005 18.0115 18.379 18.8461 17.9267L19.1321 17.7652C19.6983 17.4377 19.9056 17.3666 20.158 17.4192C20.4047 17.4711 22.6116 19.1274 23.4205 19.9058L23.515 19.9997C23.7237 20.2146 23.8377 20.4149 23.85 20.5635C23.8612 20.9109 23.5134 21.5635 22.8993 22.2757C22.4621 22.7828 21.8945 23.3012 21.6484 23.4731L21.5896 23.5111C20.7944 24.0787 19.8124 24.1031 18.5138 23.5497L18.2666 23.4392C13.7806 21.5621 6.7258 14.5693 4.68825 9.97276L4.56751 9.68866C3.93614 8.29218 3.88376 7.27125 4.3371 6.52843L4.42801 6.39239C4.95343 5.52239 6.53689 4.15207 7.32531 4.04658L7.42568 4.0413ZM16.8252 2.61769L16.9406 2.62273C21.5253 3.13447 25.1459 6.77017 25.6612 11.379C25.7136 11.8475 25.3783 12.2699 24.9123 12.3226C24.4463 12.3752 24.0261 12.0382 23.9738 11.5697C23.5471 7.75351 20.5493 4.74319 16.7532 4.31948C16.2872 4.26746 15.9513 3.84546 16.003 3.37691C16.0462 2.98646 16.3448 2.6869 16.7129 2.62799L16.8252 2.61769ZM16.8948 6.65112L17.0093 6.66563C19.3524 7.12479 21.1834 8.9656 21.6401 11.3213C21.7298 11.784 21.4294 12.2322 20.9691 12.3224C20.5089 12.4126 20.0631 12.1106 19.9734 11.6479C19.649 9.97464 18.3488 8.66742 16.6845 8.34128C16.2242 8.25109 15.9239 7.80287 16.0136 7.34015C16.0883 6.95455 16.4104 6.68057 16.782 6.65215L16.8948 6.65112Z" fill="#BD0303"/>
</svg>
