<svg width="18" height="18" viewBox="0 0 18 18" fill="none" xmlns="http://www.w3.org/2000/svg">
<path fill-rule="evenodd" clip-rule="evenodd" d="M4.85661 1.50271L4.83527 1.50129C3.84764 1.45534 2.45392 2.64288 1.93894 3.5018C1.37389 4.2736 1.36303 5.29856 1.85647 6.48412L1.93426 6.66315C3.23449 9.8653 8.11352 14.7382 11.3031 16.0723C12.5235 16.6432 13.6112 16.6537 14.4682 16.0366C15.2217 15.6058 16.4573 14.1726 16.4216 13.1547C16.3877 12.7359 16.193 12.394 15.8906 12.0828L15.8168 12.0095L15.6114 11.8196C14.8675 11.1544 13.5797 10.2074 13.1813 10.1237C12.7136 10.0261 12.3965 10.1134 11.8962 10.3893L11.7099 10.4952C11.3542 10.7003 11.227 10.7354 11.0585 10.6739C9.2788 9.94333 8.02385 8.68208 7.28843 6.87295C7.24062 6.73891 7.26426 6.62185 7.41895 6.33803L7.50045 6.19329C7.83762 5.60442 7.95065 5.27152 7.84445 4.75891L7.8257 4.69248C7.6515 4.18531 6.58382 2.75441 5.991 2.13146L5.89549 2.03484C5.58653 1.73142 5.2468 1.5363 4.85661 1.50271ZM4.7737 2.59798L4.81437 2.60579C4.88554 2.62588 4.96948 2.67517 5.064 2.75638L5.13284 2.81933L5.26277 2.95612C5.76682 3.51264 6.74331 4.82506 6.77561 4.98199C6.80613 5.12931 6.77238 5.25244 6.61244 5.54261L6.52876 5.69054C6.17656 6.30725 6.06754 6.70491 6.26993 7.26726C7.12429 9.37019 8.59476 10.848 10.666 11.6978C11.2002 11.8931 11.5789 11.8151 12.1154 11.5243L12.2992 11.4205C12.6633 11.21 12.7965 11.1643 12.9588 11.1981C13.1173 11.2314 14.536 12.2962 15.0561 12.7966L15.1169 12.8569C15.251 12.9951 15.3243 13.1239 15.3322 13.2194C15.3394 13.4427 15.1158 13.8622 14.7211 14.3201C14.44 14.6461 14.0751 14.9794 13.9169 15.0899L13.8791 15.1143C13.3679 15.4792 12.7366 15.4948 11.9018 15.1391L11.7429 15.0681C8.85901 13.8614 4.32378 9.36599 3.01392 6.41106L2.9363 6.22842C2.53042 5.33069 2.49675 4.67437 2.78818 4.19685L2.84662 4.10939C3.1844 3.55011 4.20233 2.66919 4.70917 2.60138L4.7737 2.59798ZM10.8163 1.6828L10.8904 1.68604C13.8378 2.01502 16.1653 4.35225 16.4966 7.31507C16.5302 7.61623 16.3147 7.88781 16.0151 7.92167C15.7156 7.95552 15.4455 7.73882 15.4118 7.43766C15.1375 4.9844 13.2103 3.0492 10.77 2.77681C10.4704 2.74337 10.2545 2.47208 10.2878 2.17087C10.3155 1.91987 10.5075 1.72729 10.7441 1.68942L10.8163 1.6828ZM10.861 4.27572L10.9346 4.28505C12.4409 4.58022 13.6179 5.7636 13.9115 7.27797C13.9692 7.57543 13.7761 7.86357 13.4802 7.92155C13.1844 7.97953 12.8978 7.78539 12.8401 7.48793C12.6315 6.41227 11.7957 5.57191 10.7258 5.36225C10.4299 5.30427 10.2368 5.01613 10.2945 4.71867C10.3425 4.47078 10.5496 4.29465 10.7885 4.27638L10.861 4.27572Z" fill="#9CA4AF"/>
</svg>
