<svg width="207" height="25" viewBox="0 0 207 25" fill="none" xmlns="http://www.w3.org/2000/svg">
<path d="M0 24.6556H10.1577C15.4978 24.6556 18.342 21.8052 18.342 17.9335C18.342 14.3349 15.8228 12.1615 13.118 12.0309V11.7933C15.5907 11.2233 17.4132 9.42993 17.4132 6.5677C17.4132 2.92161 14.7664 0.332542 9.51924 0.332542H0V24.6556ZM5.02662 20.4513V13.9905H9.24063C11.6553 13.9905 13.1528 15.4157 13.1528 17.4228C13.1528 19.2518 11.9339 20.4513 9.12454 20.4513H5.02662ZM5.02662 10.5107V4.48931H8.84593C11.0748 4.48931 12.3402 5.66508 12.3402 7.4228C12.3402 9.34679 10.8078 10.5107 8.75306 10.5107H5.02662Z" fill="#393D42"/>
<path d="M42.5899 8.84798C41.9282 3.2304 37.7722 0 32.2697 0C25.9893 0 21.1948 4.53682 21.1948 12.4941C21.1948 20.4276 25.908 24.9881 32.2697 24.9881C38.3643 24.9881 42.0443 20.8432 42.5899 16.3658L37.5052 16.342C37.0293 18.943 35.0326 20.4394 32.3509 20.4394C28.7406 20.4394 26.2911 17.696 26.2911 12.4941C26.2911 7.43468 28.7057 4.54869 32.3857 4.54869C35.137 4.54869 37.1221 6.17577 37.5052 8.84798H42.5899Z" fill="#393D42"/>
<path d="M57.2112 10.4869H46.3686V14.5012H57.2112V10.4869Z" fill="#393D42"/>
<path d="M61.5181 24.6556H77.5847V20.4157H66.5447V14.6081H76.7141V10.3682H66.5447V4.57245H77.5383V0.332542H61.5181V24.6556Z" fill="#393D42"/>
<path d="M86.2478 0.332542H80.5479L87.8498 12.4941L80.4086 24.6556H86.1666L91.0423 16.3539H91.228L96.1037 24.6556H101.885L94.4669 12.4941L101.722 0.332542H96.0457L91.228 8.62233H91.0423L86.2478 0.332542Z" fill="#393D42"/>
<path d="M104.903 24.6556H109.93V16.7696H114.155C119.623 16.7696 122.804 13.4323 122.804 8.57482C122.804 3.74109 119.681 0.332542 114.283 0.332542H104.903V24.6556ZM109.93 12.6485V4.53682H113.32C116.222 4.53682 117.626 6.15202 117.626 8.57482C117.626 10.9857 116.222 12.6485 113.343 12.6485H109.93Z" fill="#393D42"/>
<path d="M126.069 24.6556H131.096V16.0333H134.764L139.268 24.6556H144.817L139.767 15.2019C142.472 14.0143 143.97 11.6033 143.97 8.27791C143.97 3.44418 140.847 0.332542 135.449 0.332542H126.069V24.6556ZM131.096 11.9002V4.53682H134.485C137.388 4.53682 138.792 5.85511 138.792 8.27791C138.792 10.6888 137.388 11.9002 134.509 11.9002H131.096Z" fill="#393D42"/>
<path d="M147.522 24.6556H163.589V20.4157H152.549V14.6081H162.718V10.3682H152.549V4.57245H163.542V0.332542H147.522V24.6556Z" fill="#393D42"/>
<path d="M180.436 7.32779H185.254C185.184 2.99287 181.701 0 176.408 0C171.195 0 167.376 2.94537 167.399 7.36342C167.388 10.9501 169.86 13.0048 173.877 13.9905L176.466 14.6556C179.055 15.2969 180.494 16.057 180.506 17.696C180.494 19.4774 178.846 20.6888 176.292 20.6888C173.68 20.6888 171.799 19.4537 171.637 17.019H166.772C166.9 22.2803 170.58 25 176.35 25C182.154 25 185.567 22.1615 185.579 17.7078C185.567 13.658 182.584 11.5083 178.451 10.5582L176.315 10.0356C174.249 9.54869 172.519 8.76485 172.554 7.019C172.554 5.45131 173.912 4.29929 176.373 4.29929C178.776 4.29929 180.25 5.41568 180.436 7.32779Z" fill="#393D42"/>
<path d="M201.857 7.32779H206.675C206.605 2.99287 203.123 0 197.829 0C192.617 0 188.797 2.94537 188.821 7.36342C188.809 10.9501 191.282 13.0048 195.298 13.9905L197.887 14.6556C200.476 15.2969 201.915 16.057 201.927 17.696C201.915 19.4774 200.267 20.6888 197.713 20.6888C195.101 20.6888 193.22 19.4537 193.058 17.019H188.194C188.321 22.2803 192.001 25 197.771 25C203.575 25 206.988 22.1615 207 17.7078C206.988 13.658 204.005 11.5083 199.872 10.5582L197.736 10.0356C195.67 9.54869 193.94 8.76485 193.975 7.019C193.975 5.45131 195.333 4.29929 197.794 4.29929C200.197 4.29929 201.672 5.41568 201.857 7.32779Z" fill="#393D42"/>
</svg>
