<svg width="168" height="20" viewBox="0 0 168 20" fill="none" xmlns="http://www.w3.org/2000/svg">
<path d="M0.666748 19.7245H8.84527C13.1448 19.7245 15.4348 17.4442 15.4348 14.3468C15.4348 11.4679 13.4066 9.72922 11.2287 9.6247V9.43468C13.2196 8.97862 14.6871 7.54394 14.6871 5.25416C14.6871 2.33729 12.556 0.266033 8.33119 0.266033H0.666748V19.7245ZM4.71395 16.361V11.1924H8.10687C10.051 11.1924 11.2568 12.3325 11.2568 13.9382C11.2568 15.4014 10.2753 16.361 8.0134 16.361H4.71395ZM4.71395 8.40855V3.59145H7.78908C9.58368 3.59145 10.6025 4.53207 10.6025 5.93824C10.6025 7.47743 9.3687 8.40855 7.7143 8.40855H4.71395Z" fill="#393D42"/>
<path d="M34.9581 7.07838C34.4254 2.58432 31.0792 0 26.6488 0C21.5921 0 17.7318 3.62945 17.7318 9.99525C17.7318 16.342 21.5267 19.9905 26.6488 19.9905C31.5559 19.9905 34.5188 16.6746 34.9581 13.0926L30.8642 13.0736C30.481 15.1544 28.8733 16.3515 26.7142 16.3515C23.8073 16.3515 21.8351 14.1568 21.8351 9.99525C21.8351 5.94774 23.7793 3.63896 26.7422 3.63896C28.9574 3.63896 30.5558 4.94062 30.8642 7.07838H34.9581Z" fill="#393D42"/>
<path d="M46.7305 8.38955H38.0005V11.601H46.7305V8.38955Z" fill="#393D42"/>
<path d="M50.1982 19.7245H63.1343V16.3325H54.2454V11.6865H62.4333V8.29454H54.2454V3.65796H63.0969V0.266033H50.1982V19.7245Z" fill="#393D42"/>
<path d="M70.1094 0.266033H65.5201L71.3993 9.99525L65.408 19.7245H70.044L73.9697 13.0831H74.1192L78.0449 19.7245H82.6997L76.727 9.99525L82.5688 0.266033H77.9982L74.1192 6.89786H73.9697L70.1094 0.266033Z" fill="#393D42"/>
<path d="M85.1299 19.7245H89.1771V13.4157H92.5794C96.9817 13.4157 99.5428 10.7458 99.5428 6.85986C99.5428 2.99287 97.0285 0.266033 92.6822 0.266033H85.1299V19.7245ZM89.1771 10.1188V3.62945H91.9064C94.2431 3.62945 95.3741 4.92162 95.3741 6.85986C95.3741 8.7886 94.2431 10.1188 91.9251 10.1188H89.1771Z" fill="#393D42"/>
<path d="M102.172 19.7245H106.219V12.8266H109.172L112.799 19.7245H117.267L113.201 12.1615C115.379 11.2114 116.584 9.28266 116.584 6.62233C116.584 2.75534 114.07 0.266033 109.724 0.266033H102.172V19.7245ZM106.219 9.52019V3.62945H108.948C111.285 3.62945 112.416 4.68409 112.416 6.62233C112.416 8.55107 111.285 9.52019 108.967 9.52019H106.219Z" fill="#393D42"/>
<path d="M119.445 19.7245H132.381V16.3325H123.492V11.6865H131.68V8.29454H123.492V3.65796H132.343V0.266033H119.445V19.7245Z" fill="#393D42"/>
<path d="M145.945 5.86223H149.824C149.768 2.3943 146.964 0 142.702 0C138.505 0 135.43 2.35629 135.449 5.89074C135.439 8.76009 137.43 10.4038 140.664 11.1924L142.749 11.7245C144.833 12.2375 145.992 12.8456 146.001 14.1568C145.992 15.5819 144.665 16.5511 142.609 16.5511C140.506 16.5511 138.991 15.5629 138.86 13.6152H134.944C135.047 17.8242 138.01 20 142.655 20C147.329 20 150.077 17.7292 150.086 14.1663C150.077 10.9264 147.675 9.20665 144.347 8.44656L142.627 8.0285C140.964 7.63895 139.571 7.01188 139.599 5.6152C139.599 4.36105 140.692 3.43943 142.674 3.43943C144.609 3.43943 145.796 4.33254 145.945 5.86223Z" fill="#393D42"/>
<path d="M163.193 5.86223H167.072C167.016 2.3943 164.212 0 159.949 0C155.753 0 152.677 2.35629 152.696 5.89074C152.687 8.76009 154.678 10.4038 157.912 11.1924L159.996 11.7245C162.08 12.2375 163.239 12.8456 163.249 14.1568C163.239 15.5819 161.912 16.5511 159.856 16.5511C157.753 16.5511 156.239 15.5629 156.108 13.6152H152.191C152.294 17.8242 155.257 20 159.903 20C164.576 20 167.324 17.7292 167.333 14.1663C167.324 10.9264 164.922 9.20665 161.594 8.44656L159.875 8.0285C158.211 7.63895 156.818 7.01188 156.846 5.6152C156.846 4.36105 157.94 3.43943 159.921 3.43943C161.856 3.43943 163.043 4.33254 163.193 5.86223Z" fill="#393D42"/>
</svg>
