<svg width="155" height="34" viewBox="0 0 155 34" fill="none" xmlns="http://www.w3.org/2000/svg">
<path d="M1.51705 26H8.97443C12.8949 26 14.983 23.9545 14.983 21.1761C14.983 18.5938 13.1335 17.0341 11.1477 16.9403V16.7699C12.9631 16.3608 14.3011 15.0739 14.3011 13.0199C14.3011 10.4034 12.358 8.54545 8.50568 8.54545H1.51705V26ZM5.20739 22.983V18.3466H8.30114C10.0739 18.3466 11.1733 19.3693 11.1733 20.8097C11.1733 22.1222 10.2784 22.983 8.21591 22.983H5.20739ZM5.20739 15.8494V11.5284H8.01136C9.64773 11.5284 10.5767 12.3722 10.5767 13.6335C10.5767 15.0142 9.4517 15.8494 7.94318 15.8494H5.20739ZM32.7848 14.6562C32.299 10.625 29.2479 8.30682 25.2081 8.30682C20.5973 8.30682 17.0774 11.5625 17.0774 17.2727C17.0774 22.9659 20.5376 26.2386 25.2081 26.2386C29.6825 26.2386 32.3842 23.2642 32.7848 20.0511L29.0518 20.0341C28.7024 21.9006 27.2365 22.9744 25.2678 22.9744C22.6172 22.9744 20.8189 21.0057 20.8189 17.2727C20.8189 13.642 22.5916 11.571 25.2933 11.571C27.3132 11.571 28.7706 12.7386 29.0518 14.6562H32.7848ZM43.5192 15.8324H35.5589V18.7131H43.5192V15.8324ZM46.6811 26H58.4766V22.9574H50.3714V18.7898H57.8374V15.7472H50.3714V11.5881H58.4425V8.54545H46.6811V26ZM64.8366 8.54545H60.652L66.0128 17.2727L60.5497 26H64.777L68.3565 20.0426H68.4929L72.0724 26H76.3168L70.8707 17.2727L76.1974 8.54545H72.0298L68.4929 14.4943H68.3565L64.8366 8.54545ZM78.5327 26H82.223V20.3409H85.3253C89.3395 20.3409 91.6747 17.946 91.6747 14.4602C91.6747 10.9915 89.3821 8.54545 85.419 8.54545H78.5327V26ZM82.223 17.3835V11.5625H84.7116C86.8423 11.5625 87.8736 12.7216 87.8736 14.4602C87.8736 16.1903 86.8423 17.3835 84.7287 17.3835H82.223ZM94.0717 26H97.7621V19.8125H100.455L103.762 26H107.836L104.129 19.2159C106.114 18.3636 107.214 16.6335 107.214 14.2472C107.214 10.7784 104.921 8.54545 100.958 8.54545H94.0717V26ZM97.7621 16.8466V11.5625H100.251C102.381 11.5625 103.413 12.5085 103.413 14.2472C103.413 15.9773 102.381 16.8466 100.268 16.8466H97.7621ZM109.822 26H121.617V22.9574H113.512V18.7898H120.978V15.7472H113.512V11.5881H121.583V8.54545H109.822V26ZM133.986 13.5653H137.523C137.472 10.4545 134.915 8.30682 131.028 8.30682C127.202 8.30682 124.398 10.4205 124.415 13.5909C124.406 16.1648 126.222 17.6392 129.17 18.3466L131.071 18.8239C132.972 19.2841 134.028 19.8295 134.037 21.0057C134.028 22.2841 132.818 23.1534 130.943 23.1534C129.026 23.1534 127.645 22.267 127.526 20.5199H123.955C124.048 24.2955 126.75 26.2472 130.986 26.2472C135.247 26.2472 137.753 24.2102 137.761 21.0142C137.753 18.108 135.562 16.5653 132.528 15.8835L130.96 15.5085C129.443 15.1591 128.173 14.5966 128.199 13.3438C128.199 12.2188 129.196 11.392 131.003 11.392C132.767 11.392 133.849 12.1932 133.986 13.5653ZM149.712 13.5653H153.249C153.198 10.4545 150.641 8.30682 146.755 8.30682C142.928 8.30682 140.124 10.4205 140.141 13.5909C140.133 16.1648 141.948 17.6392 144.897 18.3466L146.798 18.8239C148.698 19.2841 149.755 19.8295 149.763 21.0057C149.755 22.2841 148.545 23.1534 146.67 23.1534C144.752 23.1534 143.371 22.267 143.252 20.5199H139.681C139.775 24.2955 142.477 26.2472 146.712 26.2472C150.974 26.2472 153.479 24.2102 153.488 21.0142C153.479 18.108 151.289 16.5653 148.255 15.8835L146.687 15.5085C145.17 15.1591 143.9 14.5966 143.925 13.3438C143.925 12.2188 144.923 11.392 146.729 11.392C148.494 11.392 149.576 12.1932 149.712 13.5653Z" fill="#393D42"/>
</svg>
