<svg width="60" height="60" viewBox="0 0 60 60" fill="none" xmlns="http://www.w3.org/2000/svg">
<path d="M35.2348 33.0685V7.87133C35.2348 3.52406 31.7108 0 27.3635 0C23.0162 0 19.4922 3.52406 19.4922 7.87133V33.0573C12.6887 37.398 10.692 46.4323 15.0327 53.2358C17.7115 57.4343 22.344 59.9794 27.3243 59.9888L27.4026 60C35.473 59.9849 42.0029 53.4304 41.9878 45.3601C41.9784 40.3799 39.4333 35.7473 35.2348 33.0685ZM21.2152 56.1105C15.291 52.6902 13.2614 45.115 16.6817 39.1909C17.7688 37.308 19.3323 35.7445 21.2152 34.6573C21.5628 34.4566 21.7762 34.0852 21.7747 33.6839V7.87133C21.7747 4.76 24.2969 2.23776 27.4082 2.23776C30.5196 2.23776 33.0418 4.76 33.0418 7.87133V33.6839C33.0403 34.0852 33.2537 34.4566 33.6012 34.6573C39.5254 38.0776 41.5551 45.6529 38.1348 51.5769C34.7145 57.5011 27.1393 59.5309 21.2152 56.1105Z" fill="#216BDE"/>
<path d="M28.5216 37.3426V20.3691C28.5216 19.7512 28.0206 19.2502 27.4027 19.2502C26.7848 19.2502 26.2838 19.7512 26.2838 20.3691V37.3426C22.0571 37.9487 19.122 41.8665 19.7282 46.0932C20.2753 49.9083 23.5486 52.7378 27.4027 52.7272C31.6726 52.7389 35.1437 49.287 35.1556 45.0171C35.1662 41.163 32.3367 37.8897 28.5216 37.3426ZM27.4027 50.4782C24.3686 50.4782 21.909 48.0187 21.909 44.9845C21.9151 41.9531 24.3711 39.497 27.4027 39.4908C30.4368 39.4908 32.8964 41.9504 32.8964 44.9845C32.8964 48.0187 30.4367 50.4782 27.4027 50.4782Z" fill="#216BDE"/>
<path d="M46.1438 7.69238H39.1508C38.5329 7.69238 38.0319 8.19336 38.0319 8.81126C38.0319 9.42917 38.5329 9.93015 39.1508 9.93015H46.1438C46.7617 9.93015 47.2627 9.42917 47.2627 8.81126C47.2627 8.19336 46.7617 7.69238 46.1438 7.69238Z" fill="#216BDE"/>
<path d="M44.6558 13.2866H40.5495C39.9316 13.2866 39.4306 13.7876 39.4306 14.4055C39.4306 15.0234 39.9316 15.5244 40.5495 15.5244H44.6558C45.2737 15.5244 45.7747 15.0234 45.7747 14.4055C45.7747 13.7876 45.2737 13.2866 44.6558 13.2866Z" fill="#216BDE"/>
<path d="M46.1438 18.8811H39.1508C38.5329 18.8811 38.0319 19.3821 38.0319 20C38.0319 20.6179 38.5329 21.1189 39.1508 21.1189H46.1438C46.7617 21.1189 47.2627 20.6179 47.2627 20C47.2627 19.3821 46.7617 18.8811 46.1438 18.8811Z" fill="#216BDE"/>
<path d="M44.6558 24.4756H40.5495C39.9316 24.4756 39.4306 24.9766 39.4306 25.5945C39.4306 26.2124 39.9316 26.7134 40.5495 26.7134H44.6558C45.2737 26.7134 45.7747 26.2124 45.7747 25.5945C45.7747 24.9766 45.2737 24.4756 44.6558 24.4756Z" fill="#216BDE"/>
<path d="M46.1438 30.0698H39.1508C38.5329 30.0698 38.0319 30.5708 38.0319 31.1887C38.0319 31.8066 38.5329 32.3076 39.1508 32.3076H46.1438C46.7617 32.3076 47.2627 31.8066 47.2627 31.1887C47.2627 30.5708 46.7617 30.0698 46.1438 30.0698Z" fill="#216BDE"/>
</svg>
