<svg width="30" height="30" viewBox="0 0 30 30" fill="none" xmlns="http://www.w3.org/2000/svg">
<circle cx="15" cy="15" r="15" fill="#675DA9"/>
<path d="M22.4585 6.95128C21.9624 6.49511 19.9536 5.03458 15.476 5.01457C15.476 5.01457 10.1981 4.69445 7.62512 7.05532C6.1926 8.48784 5.68841 10.5806 5.6364 13.1816C5.58438 15.7785 5.51635 20.6483 10.2101 21.9688H10.2141L10.2101 23.9815C10.2101 23.9815 10.1821 24.7978 10.7183 24.9619C11.3665 25.1619 11.7506 24.5417 12.3709 23.8735C12.711 23.5053 13.1792 22.9691 13.5353 22.557C16.7445 22.8251 19.2134 22.2089 19.4935 22.1168C20.1417 21.9047 23.811 21.4366 24.4073 16.5668C25.0235 11.557 24.1072 8.3838 22.4585 6.95128ZM23.0027 16.2147C22.4986 20.2802 19.5255 20.5362 18.9773 20.7123C18.7452 20.7883 16.5764 21.3285 13.8474 21.1485C13.8474 21.1485 11.8147 23.6014 11.1824 24.2376C11.0824 24.3376 10.9663 24.3777 10.8903 24.3576C10.7823 24.3296 10.7503 24.2016 10.7543 24.0135C10.7543 23.7414 10.7703 20.6643 10.7703 20.6643C10.7663 20.6643 10.7663 20.6643 10.7703 20.6643C6.79682 19.5639 7.0289 15.4184 7.07292 13.2496C7.11694 11.0808 7.52509 9.30014 8.73753 8.1037C10.9103 6.13498 15.396 6.42709 15.396 6.42709C19.1813 6.44309 20.994 7.58351 21.4142 7.96365C22.8107 9.16409 23.5229 12.0251 23.0027 16.2147Z" fill="white"/>
<path d="M17.3207 13.3256C17.1886 13.3256 17.0766 13.2216 17.0686 13.0855C17.0246 12.2252 16.6204 11.8051 15.7961 11.761C15.6561 11.753 15.548 11.633 15.556 11.4929C15.564 11.3529 15.6841 11.2449 15.8241 11.2529C16.9125 11.3129 17.5208 11.9371 17.5768 13.0575C17.5848 13.1976 17.4767 13.3176 17.3367 13.3216C17.3287 13.3256 17.3247 13.3256 17.3207 13.3256Z" fill="white"/>
<path d="M18.6171 13.7579H18.6131C18.4731 13.7539 18.361 13.6378 18.3651 13.4978C18.3851 12.6335 18.137 11.9332 17.6088 11.357C17.0846 10.7808 16.3603 10.4687 15.404 10.4006C15.2639 10.3886 15.1599 10.2686 15.1719 10.1285C15.1839 9.98848 15.3039 9.88445 15.444 9.89645C16.5244 9.97648 17.3767 10.3526 17.9849 11.0169C18.5971 11.6851 18.8932 12.5214 18.8732 13.5098C18.8692 13.6498 18.7532 13.7579 18.6171 13.7579Z" fill="white"/>
<path d="M19.9456 14.2779C19.8056 14.2779 19.6935 14.1659 19.6935 14.0258C19.6815 12.4773 19.2374 11.2968 18.333 10.4125C17.4407 9.5402 16.3083 9.09604 14.9758 9.08403C14.8358 9.08403 14.7237 8.96799 14.7237 8.82794C14.7237 8.68789 14.8398 8.57585 14.9758 8.57585C16.4443 8.58785 17.6928 9.08003 18.6812 10.0484C19.6735 11.0167 20.1817 12.3532 20.1977 14.0178C20.2017 14.1619 20.0897 14.2779 19.9456 14.2779C19.9496 14.2779 19.9496 14.2779 19.9456 14.2779Z" fill="white"/>
<path d="M15.8561 16.4587C15.8561 16.4587 16.2123 16.4907 16.4043 16.2546L16.7765 15.7865C16.9565 15.5544 17.3927 15.4063 17.8169 15.6424C18.0529 15.7745 18.4811 16.0386 18.7452 16.2346C19.0293 16.4427 19.6055 16.9229 19.6095 16.9269C19.8856 17.159 19.9496 17.4991 19.7616 17.8632C19.7616 17.8632 19.7616 17.8672 19.7616 17.8712C19.5695 18.2113 19.3094 18.5315 18.9853 18.8276C18.9813 18.8276 18.9813 18.8316 18.9773 18.8316C18.7092 19.0557 18.4451 19.1837 18.189 19.2117C18.157 19.2197 18.121 19.2197 18.0729 19.2197C17.9609 19.2197 17.8489 19.2037 17.7368 19.1677L17.7288 19.1557C17.3287 19.0437 16.6644 18.7635 15.56 18.1513C14.8398 17.7552 14.2435 17.351 13.7354 16.9469C13.4673 16.7348 13.1952 16.4987 12.9151 16.2186C12.9071 16.2106 12.8951 16.1986 12.887 16.1906C12.879 16.1826 12.867 16.1706 12.859 16.1626C12.851 16.1546 12.839 16.1426 12.831 16.1346C12.823 16.1266 12.811 16.1146 12.803 16.1066C12.5269 15.8265 12.2868 15.5544 12.0748 15.2863C11.6706 14.7821 11.2665 14.1819 10.8703 13.4616C10.2581 12.3532 9.97799 11.689 9.86594 11.2928L9.85394 11.2848C9.81793 11.1728 9.80192 11.0607 9.80192 10.9487C9.80192 10.9007 9.80192 10.8647 9.80992 10.8326C9.84194 10.5726 9.96998 10.3125 10.1901 10.0444C10.1901 10.0404 10.1941 10.0404 10.1941 10.0364C10.4902 9.70824 10.8103 9.45214 11.1504 9.26007C11.1504 9.26007 11.1544 9.26007 11.1584 9.26007C11.5185 9.072 11.8587 9.13603 12.0948 9.41213C12.0948 9.41213 12.5789 9.99234 12.787 10.2764C12.9831 10.5445 13.2472 10.9687 13.3792 11.2048C13.6153 11.6289 13.4673 12.0651 13.2352 12.2452L12.767 12.6173C12.5309 12.8094 12.5629 13.1655 12.5629 13.1655C12.5629 13.1655 13.2552 15.7985 15.8561 16.4587Z" fill="white"/>
</svg>
