<svg width="30" height="30" viewBox="0 0 30 30" fill="none" xmlns="http://www.w3.org/2000/svg">
<circle cx="15" cy="15" r="15" fill="#0DC143"/>
<path d="M21.6672 8.36149C19.9302 6.58784 17.529 5.625 15.0766 5.625C9.86546 5.625 5.67609 9.83108 5.72718 14.9493C5.72718 16.5709 6.18699 18.1419 6.95334 19.5608L5.625 24.375L10.5807 23.1081C11.9601 23.8682 13.4928 24.223 15.0255 24.223C20.1856 24.223 24.375 20.0169 24.375 14.8986C24.375 12.4155 23.4043 10.0845 21.6672 8.36149ZM15.0766 22.652C13.6972 22.652 12.3178 22.2973 11.1427 21.5878L10.8362 21.4358L7.87296 22.1959L8.63931 19.3074L8.43495 19.0034C6.18699 15.4054 7.25988 10.6419 10.9384 8.41216C14.6168 6.18243 19.3682 7.24662 21.6161 10.8953C23.8641 14.5439 22.7912 19.2568 19.1127 21.4865C17.9377 22.2466 16.5072 22.652 15.0766 22.652ZM19.5725 17.027L19.0106 16.7736C19.0106 16.7736 18.1931 16.4189 17.6822 16.1655C17.6311 16.1655 17.58 16.1149 17.5289 16.1149C17.3757 16.1149 17.2735 16.1655 17.1713 16.2162C17.1713 16.2162 17.1202 16.2669 16.405 17.0777C16.3539 17.1791 16.2517 17.2297 16.1495 17.2297H16.0984C16.0473 17.2297 15.9452 17.1791 15.8941 17.1284L15.6386 17.027C15.0766 16.7736 14.5657 16.4696 14.157 16.0642C14.0548 15.9628 13.9016 15.8615 13.7994 15.7601C13.4418 15.4054 13.0841 15 12.8287 14.5439L12.7776 14.4426C12.7265 14.3919 12.7265 14.3412 12.6754 14.2399C12.6754 14.1385 12.6754 14.0372 12.7265 13.9865C12.7265 13.9865 12.9309 13.7331 13.0841 13.5811C13.1863 13.4797 13.2374 13.3277 13.3396 13.2264C13.4418 13.0743 13.4928 12.8716 13.4418 12.7196C13.3907 12.4662 12.7776 11.098 12.6243 10.7939C12.5221 10.6419 12.42 10.5912 12.2667 10.5405H12.1134C12.0112 10.5405 11.858 10.5405 11.7047 10.5405C11.6025 10.5405 11.5003 10.5912 11.3982 10.5912L11.3471 10.6419C11.2449 10.6926 11.1427 10.7939 11.0405 10.8446C10.9384 10.9459 10.8873 11.0473 10.7851 11.1486C10.4275 11.6047 10.2231 12.1622 10.2231 12.7196C10.2231 13.125 10.3253 13.5304 10.4785 13.8851L10.5296 14.0372C10.9894 15 11.6025 15.8615 12.42 16.6216L12.6243 16.8243C12.7776 16.9764 12.9309 17.0777 13.033 17.2297C14.1059 18.1419 15.3321 18.8007 16.7115 19.1554C16.8648 19.2061 17.0691 19.2061 17.2224 19.2568C17.3757 19.2568 17.58 19.2568 17.7333 19.2568C17.9888 19.2568 18.2953 19.1554 18.4997 19.0541C18.6529 18.9527 18.7551 18.9527 18.8573 18.8514L18.9595 18.75C19.0616 18.6486 19.1638 18.598 19.266 18.4966C19.3682 18.3953 19.4704 18.2939 19.5215 18.1926C19.6236 17.9899 19.6747 17.7365 19.7258 17.4831C19.7258 17.3818 19.7258 17.2297 19.7258 17.1284C19.7258 17.1284 19.6747 17.0777 19.5725 17.027Z" fill="white"/>
</svg>
